<svg width="197" height="197" viewBox="0 0 197 197" fill="none" xmlns="http://www.w3.org/2000/svg">
<rect width="197" height="197" rx="98.5" fill="#121214"/>
<path d="M100.453 94.5938V121.938C100.453 122.456 100.247 122.952 99.881 123.319C99.5147 123.685 99.0179 123.891 98.4999 123.891C97.9819 123.891 97.4851 123.685 97.1188 123.319C96.7526 122.952 96.5468 122.456 96.5468 121.938V94.5938C96.5468 94.0758 96.7526 93.579 97.1188 93.2127C97.4851 92.8464 97.9819 92.6406 98.4999 92.6406C99.0179 92.6406 99.5147 92.8464 99.881 93.2127C100.247 93.579 100.453 94.0758 100.453 94.5938ZM151.181 83.6514L144.398 134.433C144.211 135.838 143.52 137.127 142.454 138.062C141.388 138.996 140.02 139.513 138.602 139.516H58.3974C56.9799 139.513 55.6115 138.996 54.5458 138.062C53.4801 137.127 52.7893 135.838 52.6015 134.433L45.8339 83.6514C45.7234 82.8251 45.7906 81.9847 46.0308 81.1865C46.271 80.3882 46.6788 79.6504 47.2269 79.0223C47.7751 78.3942 48.4509 77.8903 49.2093 77.5443C49.9678 77.1982 50.7913 77.018 51.6249 77.0156H70.2675L97.0351 46.4346C97.2183 46.2267 97.4438 46.0603 97.6963 45.9463C97.9489 45.8323 98.2228 45.7733 98.4999 45.7733C98.777 45.7733 99.0509 45.8323 99.3035 45.9463C99.5561 46.0603 99.7815 46.2267 99.9647 46.4346L126.732 77.0156H145.375C146.21 77.0159 147.035 77.1946 147.795 77.5397C148.555 77.8849 149.233 78.3885 149.783 79.0168C150.332 79.6451 150.742 80.3837 150.983 81.183C151.224 81.9823 151.291 82.8239 151.181 83.6514ZM75.4579 77.0156H121.542L98.4999 50.6826L75.4579 77.0156ZM146.84 81.5859C146.658 81.3761 146.433 81.2081 146.18 81.0935C145.927 80.9789 145.653 80.9203 145.375 80.9219H51.6249C51.3456 80.9195 51.069 80.9771 50.8138 81.0907C50.5586 81.2043 50.3308 81.3714 50.1457 81.5806C49.9606 81.7897 49.8225 82.0362 49.7407 82.3033C49.659 82.5704 49.6355 82.8519 49.6718 83.1289L56.4394 133.91C56.5024 134.382 56.7357 134.815 57.0954 135.127C57.4551 135.439 57.9164 135.609 58.3925 135.605H138.602C139.079 135.609 139.54 135.439 139.9 135.127C140.259 134.815 140.492 134.382 140.556 133.91L147.328 83.1338C147.364 82.8558 147.339 82.5732 147.255 82.3059C147.171 82.0385 147.029 81.7928 146.84 81.5859ZM124.476 92.6406C124.221 92.615 123.963 92.6398 123.718 92.7138C123.472 92.7878 123.244 92.9094 123.045 93.0717C122.846 93.234 122.682 93.4339 122.56 93.6598C122.439 93.8858 122.363 94.1335 122.338 94.3887L119.603 121.732C119.575 121.989 119.598 122.249 119.671 122.497C119.743 122.745 119.864 122.976 120.027 123.176C120.19 123.377 120.39 123.544 120.618 123.666C120.845 123.789 121.094 123.865 121.351 123.891H121.552C122.038 123.893 122.507 123.714 122.868 123.389C123.229 123.064 123.456 122.616 123.505 122.133L126.239 94.7891C126.266 94.532 126.242 94.2721 126.168 94.0245C126.093 93.7769 125.971 93.5465 125.807 93.3466C125.643 93.1468 125.441 92.9815 125.212 92.8603C124.984 92.7391 124.734 92.6644 124.476 92.6406ZM72.5233 92.6406C72.2681 92.6663 72.0205 92.7419 71.7945 92.8633C71.5685 92.9846 71.3687 93.1493 71.2064 93.3479C71.0441 93.5465 70.9224 93.7751 70.8485 94.0207C70.7745 94.2663 70.7496 94.5241 70.7753 94.7793L73.5097 122.123C73.5583 122.606 73.7853 123.054 74.1464 123.38C74.5076 123.705 74.9769 123.883 75.4628 123.881H75.663C75.9182 123.855 76.1659 123.78 76.3918 123.658C76.6178 123.537 76.8176 123.372 76.98 123.174C77.1423 122.975 77.2639 122.746 77.3379 122.501C77.4118 122.255 77.4367 121.997 77.411 121.742L74.6767 94.3984C74.6523 94.141 74.577 93.891 74.4553 93.6629C74.3335 93.4347 74.1677 93.2331 73.9673 93.0695C73.767 92.906 73.5362 92.7839 73.2884 92.7103C73.0405 92.6366 72.7804 92.613 72.5233 92.6406Z" fill="#C4C4CC"/>
</svg>
